<?xml version="1.0" standalone="no"?>
<!DOCTYPE svg PUBLIC "-//W3C//DTD SVG 20010904//EN"
 "http://www.w3.org/TR/2001/REC-SVG-20010904/DTD/svg10.dtd">
<svg version="1.0" xmlns="http://www.w3.org/2000/svg"
 width="16.000000pt" height="16.000000pt" viewBox="0 0 16.000000 16.000000"
 preserveAspectRatio="xMidYMid meet">

<g transform="translate(0.000000,16.000000) scale(0.100000,-0.100000)"
fill="#000000" stroke="none">
<path d="M0 139 c0 -13 4 -18 12 -13 11 6 11 4 1 -7 -7 -7 -13 -25 -13 -39 0
-14 6 -32 13 -39 10 -11 10 -13 0 -7 -9 5 -13 0 -13 -13 0 -15 6 -21 21 -21
13 0 18 4 13 12 -6 10 -5 10 7 1 8 -7 38 -12 66 -11 l51 0 0 51 c1 28 -4 58
-11 66 -9 12 -9 13 1 7 8 -5 12 0 12 13 0 15 -6 21 -21 21 -13 0 -18 -4 -13
-12 6 -10 4 -10 -7 0 -7 6 -25 12 -39 12 -14 0 -32 -6 -39 -12 -11 -10 -13
-10 -7 0 5 8 0 12 -13 12 -15 0 -21 -6 -21 -21z m118 -26 c-2 -10 -16 -24 -31
-31 -39 -19 -36 -46 4 -37 22 5 29 4 25 -4 -10 -15 -66 -14 -72 2 -2 7 2 30
11 50 12 29 21 37 41 37 19 0 25 -5 22 -17z"/>
</g>
</svg>
