<?xml version="1.0" encoding="utf-8"?>
<!-- Generator: Adobe Illustrator 22.1.0, SVG Export Plug-In . SVG Version: 6.00 Build 0)  -->
<svg version="1.1" id="Capa_1" xmlns="http://www.w3.org/2000/svg" xmlns:xlink="http://www.w3.org/1999/xlink" x="0px" y="0px"
	 viewBox="0 0 221.4 47.3" style="enable-background:new 0 0 221.4 47.3;" xml:space="preserve">
<style type="text/css">
	.st0{fill:#F0AB00;}
	.st1{fill:#C75B12;}
	.st2{fill:#B71234;}
	.st3{fill:#00505C;}
	.st4{fill:#A5ACAF;}
</style>
<g id="LOGO_PERUMIN" transform="translate(-494 -480.529)">
	<g id="Grupo_335" transform="translate(0 2)">
		<path id="Trazado_2" d="M579.7,520.5h0.8v0.9h-0.8v3.2h-1v-3.2h-2.9v-1.1l3-7.6h1V520.5z M578.7,516.9l0.1-2.4h0l-2.1,6h2V516.9z"
			/>
		<path id="Trazado_3" d="M693.8,483.6l18,16.2v-14.9h3.3v22l-18-16.2v14.8h-3.3L693.8,483.6z M631.2,497.1c0,1.4-0.1,3,0.9,4.2
			c1.2,1.2,2.7,1.8,4.4,1.8c2.2,0,4.8-1.1,5.2-3.6c0.1-0.8,0.1-1.5,0.1-2.3v-3.3l3.3-3.9v7.8c0,2.2-0.2,4-2.1,5.8
			c-1.8,1.6-4.1,2.4-6.4,2.4c-2.2,0-4.4-0.7-6.2-2.1c-2.1-1.8-2.4-3.7-2.4-6v-12.8h3.3L631.2,497.1z M641.7,489.4v-4.5h3.3v0.6
			L641.7,489.4z M588.3,484.9H601v2.8h-9.4v5.1h9.1v2.8h-9.1v7h9.4v2.8h-12.7L588.3,484.9z M655.4,483l8.5,16.9l8.5-16.9l5,22.5
			h-3.4l-2.8-12.7l-7.3,14l-7.3-14l-2.9,12.7h-3.4L655.4,483z M572.9,494h1.3c2.9,0,4.9-0.7,4.9-3.2c0-2.8-2.5-3.1-5.6-3.1h-0.6V494
			z M572.9,505.5h-3.3v-20.6h4.2c2,0,4.1,0,5.9,1.1c2.7,1.6,3.6,5,2,7.7c-0.4,0.7-0.9,1.3-1.6,1.7c-1.7,1-3.7,1.5-5.7,1.4h-1.5
			V505.5z M683,505.5h3.3v-20.6H683V505.5z M611.3,505.5H608v-20.6h3.7c4.3,0,8.8,1,8.8,5.9c0,3.1-2.1,5.3-5.4,5.8l7.4,9h-4.1
			l-7-8.7h-0.1L611.3,505.5z M611.3,494.1h0.4c3,0,5.5-0.5,5.5-3.2c0-2.8-2.3-3.2-5.5-3.2h-0.4L611.3,494.1z"/>
		<path id="Trazado_4" d="M572.3,518c0.9-0.5,1.4-1.6,1.2-2.6c0-1.5-0.6-2.6-2.2-2.6c-1.5,0-2.1,1.4-2.1,2.8h1
			c0-0.9,0.1-1.8,1.1-1.8c0.9,0,1.2,0.8,1.2,1.7c0,1.7-0.5,2.1-2,2.1h-0.2v1h0.3c1.6,0,2,1,2,2.5c0,0.9-0.1,2.5-1.3,2.5
			c-1.1,0-1.3-1-1.3-2v-0.3h-1l0,0.5c0,1.6,0.6,2.8,2.3,2.8c1.8,0,2.2-1.7,2.2-3.2C573.7,520,573.6,518.5,572.3,518"/>
		<path id="Trazado_5" d="M591.9,519c0,1.9,0.4,5.4,2.9,5.4c0.5,0,1-0.2,1.4-0.5v-1.1c-0.4,0.3-0.9,0.5-1.3,0.5
			c-1.9,0-1.9-3.5-1.9-4.8c0-2.1,0.2-4.8,2-4.8c0.5,0,0.9,0.2,1.3,0.5v-1.2c-0.4-0.2-0.8-0.4-1.3-0.4
			C592,512.7,591.9,517.1,591.9,519"/>
		<path id="Trazado_6" d="M601.9,512.7c-2.3,0-2.7,3-2.7,5.8c0,2.6,0.3,5.8,2.7,5.8c2.5,0,2.7-3.7,2.7-5.8
			C604.5,516.1,604.3,512.7,601.9,512.7 M601.9,523.4c-1.6,0-1.6-2.8-1.6-4.8s0.1-4.9,1.6-4.8c1.6,0,1.6,2.8,1.6,4.8
			S603.4,523.4,601.9,523.4"/>
		<path id="Trazado_7" d="M611.6,520.5c0,0.5,0.1,1,0.1,1.5h0c-0.1-0.4-0.2-0.8-0.3-1.2l-2.5-7.9H608v11.3h0.9v-6.9
			c0-0.7-0.1-1.5-0.1-2.2h0.1c0.1,0.5,0.2,1,0.4,1.5l2.5,7.6h0.9v-11.3h-0.9V520.5z"/>
		<path id="Trazado_8" d="M618.4,521.2c0,0.3-0.1,1-0.1,1.5h-0.1c-0.1-0.5-0.1-1.3-0.2-1.5l-1.4-8.3h-1l2.2,11.3h0.9l2.2-11.3h-1
			L618.4,521.2z"/>
		<path id="Trazado_9" d="M623.9,524.2h3.4v-1h-2.4v-4.4h2.3v-1h-2.3v-4h2.4v-1h-3.4V524.2z"/>
		<path id="Trazado_10" d="M634.4,520.5c0,0.5,0.1,1,0.1,1.5h0c-0.1-0.4-0.2-0.8-0.3-1.2l-2.5-7.9h-0.9v11.3h0.9v-6.9
			c0-0.7-0.1-1.5-0.1-2.2h0.1c0.1,0.5,0.2,1,0.4,1.5l2.5,7.6h0.9v-11.3h-0.9V520.5z"/>
		<path id="Trazado_11" d="M638.8,519c0,1.9,0.4,5.4,2.9,5.4c0.5,0,1-0.2,1.4-0.5v-1.1c-0.4,0.3-0.9,0.5-1.3,0.5
			c-1.9,0-1.9-3.5-1.9-4.8c0-2.1,0.3-4.8,2-4.8c0.5,0,0.9,0.2,1.3,0.5v-1.2c-0.4-0.2-0.8-0.4-1.3-0.4
			C638.8,512.7,638.8,517.1,638.8,519"/>
		<rect id="Rectángulo_6" x="646.4" y="512.9" width="1" height="11.3"/>
		<path id="Trazado_12" d="M654.7,514.9L654.7,514.9c0.3,1.2,0.5,2.5,0.4,3.7c0,2-0.1,4.8-1.6,4.8c-1.6,0-1.6-2.8-1.6-4.8
			c0-1.7,0-4.1,1-4.7l0.9-1.1l-0.3,0c-2.3,0-2.7,3-2.7,5.8c0,2.6,0.3,5.8,2.7,5.8c2.5,0,2.7-3.7,2.7-5.8c0.1-1.6-0.1-3.1-0.7-4.6
			L654.7,514.9z"/>
		<path id="Trazado_13" d="M663.2,520.5c0,0.5,0.1,1,0.1,1.5h0c-0.1-0.4-0.2-0.8-0.3-1.2l-2.5-7.9h-0.9v11.3h0.9v-6.9
			c0-0.7-0.1-1.5-0.1-2.2h0.1c0.1,0.5,0.2,1,0.4,1.5l2.5,7.6h0.9v-11.3h-0.9L663.2,520.5z"/>
		<path id="Trazado_14" d="M677.6,512.9l-1.2,7.6c-0.1,0.7-0.1,1.3-0.2,2h0c0-0.4-0.1-0.8-0.1-1.1l-1.2-8.5h-0.9l-1.5,11.3h1
			l0.9-7.2c0.1-0.7,0.1-1.5,0.1-2.2h0c0,0.4,0.1,0.7,0.1,1.1l1.2,8.4h0.8l1.2-7.2c0.1-0.7,0.2-1.5,0.2-2.2h0.1c0,0.4,0,0.7,0.1,1.1
			l0.8,8.4h1l-1.3-11.3H677.6z"/>
		<rect id="Rectángulo_15" x="683.1" y="512.9" width="1" height="11.3"/>
		<path id="Trazado_15" d="M691.6,520.5c0,0.5,0.1,1,0.1,1.5h0c-0.1-0.4-0.2-0.8-0.3-1.2l-2.5-7.9H688v11.3h0.9v-6.9
			c0-0.7-0.1-1.5-0.1-2.2h0.1c0.1,0.5,0.2,1,0.4,1.5l2.5,7.6h0.9v-11.3h-0.9L691.6,520.5z"/>
		<path id="Trazado_16" d="M696.4,524.2h3.4v-1h-2.4v-4.4h2.3v-1h-2.3v-4h2.4v-1h-3.4V524.2z"/>
		<path id="Trazado_17" d="M707.5,515.8c0-2.8-1.5-2.9-3-2.9h-1.1v11.3h1v-5.5h0l2.3,5.5h1.1l-2.4-5.5
			C707.2,518.7,707.5,517.2,707.5,515.8z M704.4,517.8v-4h0.2c1.3,0,1.8,0.2,1.8,2c0,1.5-0.2,2-1.6,2L704.4,517.8z"/>
		<path id="Trazado_18" d="M713.3,512.9h-1l-2.1,11.3h1.1l0.4-2.3h2.3l0.4,2.3h1.1L713.3,512.9z M711.8,521l0.6-4.3
			c0.1-0.8,0.2-1.5,0.3-2.3h0.1c0.1,0.8,0.1,1.6,0.3,2.3l0.7,4.3H711.8z"/>
		<path id="Trazado_19" class="st0" d="M549.9,522.3l2.3,0.4c-2.1-1.7-13-18.2-23.3-18.2c-11.9,0-23.1,18.3-31.1,12.3
			c-0.3,0.3-1.4,1.3-2,1.7c5.6,9.9,22.9-10.5,33.2-10.5C539,508,549.2,521.2,549.9,522.3"/>
		<path id="Trazado_20" class="st1" d="M528.9,502.9c10.6,0,20.3,15.6,24.7,20c0.7,0.2,1.7,0.3,2.4,0.5c-11-9.8-16.5-23.3-27.1-23.3
			c-12.4,0-20.4,13.5-25.6,11.1c-1.1,1-3.6,3.7-4.8,4.8C506,521,516.9,502.9,528.9,502.9"/>
		<path id="Trazado_21" class="st2" d="M528.9,498.7c6.9,0,11.6,5.8,19.5,15.5c2.9,3.4,6,6.7,9.3,9.7c1,0.3,2.4,0.6,3.8,1
			c-14.6-8.3-20.6-29.3-32.6-29.3c-9.2,0-16.5,9.9-20.3,9.6l-4.5,5.2C507.8,512,517.4,498.7,528.9,498.7"/>
		<path id="Trazado_22" class="st3" d="M565.1,525.9c-17.8-8.1-22.8-31.8-36.2-31.8c-9.7,0-17.1,10.4-19.3,9.8
			c5.7-8.7,16.2-25.4,18.8-25.4C537.4,478.5,549.1,513.9,565.1,525.9"/>
		<path id="Trazado_23" class="st4" d="M495.1,519c-6.7,14.4,20.4-2.8,33.8-2.8c7.2,0,14.8,2.4,18.1,5.7l1.8,0.3
			c0,0-9-12.4-19.9-12.4C518.3,509.8,501.1,529.7,495.1,519"/>
	</g>
</g>
</svg>
